<mxfile host="app.diagrams.net" modified="2022-10-14T03:45:05.282Z" agent="5.0 (Windows NT 10.0; Win64; x64) AppleWebKit/537.36 (KHTML, like Gecko) Chrome/105.0.0.0 Safari/537.36" etag="mpZQdxTVnElsspuuTb9j" version="20.3.7" type="github">
  <diagram id="6Z6xVFgLfvlE4tVaWaFR" name="第 1 页">
    <mxGraphModel dx="545" dy="268" grid="1" gridSize="10" guides="1" tooltips="1" connect="1" arrows="1" fold="1" page="1" pageScale="1" pageWidth="827" pageHeight="1169" math="0" shadow="0">
      <root>
        <mxCell id="0" />
        <mxCell id="1" parent="0" />
        <mxCell id="zUv4HuhoSnYEj9-0NULk-27" value="l&amp;gt;n" style="text;html=1;resizable=0;autosize=1;align=center;verticalAlign=middle;points=[];fillColor=#f8cecc;strokeColor=#b85450;rounded=0;" vertex="1" parent="1">
          <mxGeometry x="140" y="435" width="40" height="30" as="geometry" />
        </mxCell>
        <mxCell id="zUv4HuhoSnYEj9-0NULk-30" value="r&amp;gt;l，提前返回" style="text;html=1;resizable=0;autosize=1;align=center;verticalAlign=middle;points=[];fillColor=#f8cecc;strokeColor=#b85450;rounded=0;" vertex="1" parent="1">
          <mxGeometry x="364" y="360" width="100" height="30" as="geometry" />
        </mxCell>
        <mxCell id="zUv4HuhoSnYEj9-0NULk-31" value="" style="group;rotation=90;" vertex="1" connectable="0" parent="1">
          <mxGeometry x="160" y="345" width="220" height="125" as="geometry" />
        </mxCell>
        <mxCell id="zUv4HuhoSnYEj9-0NULk-12" value="(" style="ellipse;whiteSpace=wrap;html=1;aspect=fixed;" vertex="1" parent="zUv4HuhoSnYEj9-0NULk-31">
          <mxGeometry x="33" width="22" height="22" as="geometry" />
        </mxCell>
        <mxCell id="zUv4HuhoSnYEj9-0NULk-13" value="(" style="ellipse;whiteSpace=wrap;html=1;aspect=fixed;" vertex="1" parent="zUv4HuhoSnYEj9-0NULk-31">
          <mxGeometry y="60" width="22" height="22" as="geometry" />
        </mxCell>
        <mxCell id="zUv4HuhoSnYEj9-0NULk-14" value=")" style="ellipse;whiteSpace=wrap;html=1;aspect=fixed;" vertex="1" parent="zUv4HuhoSnYEj9-0NULk-31">
          <mxGeometry x="66" y="60" width="22" height="22" as="geometry" />
        </mxCell>
        <mxCell id="zUv4HuhoSnYEj9-0NULk-15" value=")" style="ellipse;whiteSpace=wrap;html=1;aspect=fixed;" vertex="1" parent="zUv4HuhoSnYEj9-0NULk-31">
          <mxGeometry x="165" width="22" height="22" as="geometry" />
        </mxCell>
        <mxCell id="zUv4HuhoSnYEj9-0NULk-16" value="(" style="ellipse;whiteSpace=wrap;html=1;aspect=fixed;" vertex="1" parent="zUv4HuhoSnYEj9-0NULk-31">
          <mxGeometry x="132" y="60" width="22" height="22" as="geometry" />
        </mxCell>
        <mxCell id="zUv4HuhoSnYEj9-0NULk-17" value=")" style="ellipse;whiteSpace=wrap;html=1;aspect=fixed;" vertex="1" parent="zUv4HuhoSnYEj9-0NULk-31">
          <mxGeometry x="198.00000000000003" y="60" width="22" height="22" as="geometry" />
        </mxCell>
        <mxCell id="zUv4HuhoSnYEj9-0NULk-20" value="" style="endArrow=none;html=1;rounded=0;entryX=0;entryY=1;entryDx=0;entryDy=0;" edge="1" parent="zUv4HuhoSnYEj9-0NULk-31" target="zUv4HuhoSnYEj9-0NULk-12">
          <mxGeometry width="50" height="50" relative="1" as="geometry">
            <mxPoint x="11" y="60" as="sourcePoint" />
            <mxPoint x="33" y="15" as="targetPoint" />
          </mxGeometry>
        </mxCell>
        <mxCell id="zUv4HuhoSnYEj9-0NULk-26" value="" style="endArrow=none;html=1;rounded=0;entryX=1;entryY=1;entryDx=0;entryDy=0;exitX=0.5;exitY=0;exitDx=0;exitDy=0;" edge="1" parent="zUv4HuhoSnYEj9-0NULk-31" source="zUv4HuhoSnYEj9-0NULk-14" target="zUv4HuhoSnYEj9-0NULk-12">
          <mxGeometry width="50" height="50" relative="1" as="geometry">
            <mxPoint x="132" y="75" as="sourcePoint" />
            <mxPoint x="187.00000000000003" as="targetPoint" />
          </mxGeometry>
        </mxCell>
        <mxCell id="zUv4HuhoSnYEj9-0NULk-28" value="l==n &amp;amp;&amp;amp;r =n" style="text;html=1;resizable=0;autosize=1;align=center;verticalAlign=middle;points=[];fillColor=#d5e8d4;strokeColor=#82b366;rounded=0;" vertex="1" parent="zUv4HuhoSnYEj9-0NULk-31">
          <mxGeometry x="28" y="90" width="90" height="30" as="geometry" />
        </mxCell>
        <mxCell id="zUv4HuhoSnYEj9-0NULk-33" value="n=1" style="text;html=1;resizable=0;autosize=1;align=center;verticalAlign=middle;points=[];fillColor=none;strokeColor=none;rounded=0;" vertex="1" parent="zUv4HuhoSnYEj9-0NULk-31">
          <mxGeometry x="92" y="-30" width="40" height="30" as="geometry" />
        </mxCell>
        <mxCell id="zUv4HuhoSnYEj9-0NULk-37" value="" style="endArrow=none;dashed=1;html=1;dashPattern=1 3;strokeWidth=2;rounded=0;exitX=0.275;exitY=0.004;exitDx=0;exitDy=0;exitPerimeter=0;entryX=1;entryY=1;entryDx=0;entryDy=0;" edge="1" parent="zUv4HuhoSnYEj9-0NULk-31" source="zUv4HuhoSnYEj9-0NULk-17" target="zUv4HuhoSnYEj9-0NULk-15">
          <mxGeometry width="50" height="50" relative="1" as="geometry">
            <mxPoint x="90" y="55" as="sourcePoint" />
            <mxPoint x="180" y="25" as="targetPoint" />
          </mxGeometry>
        </mxCell>
        <mxCell id="zUv4HuhoSnYEj9-0NULk-36" value="" style="endArrow=none;dashed=1;html=1;dashPattern=1 3;strokeWidth=2;rounded=0;entryX=0;entryY=1;entryDx=0;entryDy=0;" edge="1" parent="1" target="zUv4HuhoSnYEj9-0NULk-15">
          <mxGeometry width="50" height="50" relative="1" as="geometry">
            <mxPoint x="300" y="400" as="sourcePoint" />
            <mxPoint x="330" y="370" as="targetPoint" />
          </mxGeometry>
        </mxCell>
      </root>
    </mxGraphModel>
  </diagram>
</mxfile>
